<?xml version="1.0" encoding="UTF-8"?>
<svg width="36px" height="36px" viewBox="0 0 36 36" version="1.1" xmlns="http://www.w3.org/2000/svg" xmlns:xlink="http://www.w3.org/1999/xlink">
    <!-- Generator: Sketch 41.2 (35397) - http://www.bohemiancoding.com/sketch -->
    <title>icon/filter</title>
    <desc>Created with Sketch.</desc>
    <defs></defs>
    <g id="Symbols" stroke="none" stroke-width="1" fill="none" fill-rule="evenodd">
        <g id="icon/filter">
            <g id="icon/frame" opacity="0">
                <rect id="frame" fill="#FFFFFF" x="0" y="0" width="36" height="36"></rect>
                <rect id="bounding-box" fill="#000000" x="8" y="8" width="20" height="20"></rect>
            </g>
            <path d="M12,17 L8,17 L8,19 L12,19 L12,21 L14,21 L14,15 L12,15 L12,17 Z M24,10 L24,8 L22,8 L22,14 L24,14 L24,12 L28,12 L28,10 L24,10 Z M17,24 L8,24 L8,26 L17,26 L17,28 L19,28 L19,22 L17,22 L17,24 Z M21,24 L28,24 L28,26 L21,26 L21,24 Z M8,10 L20,10 L20,12 L8,12 L8,10 Z M16,17 L28,17 L28,19 L16,19 L16,17 Z" id="dials" fill="#000000"></path>
        </g>
    </g>
</svg>