<?xml version="1.0" encoding="UTF-8"?>
<svg width="57px" height="37px" viewBox="0 0 57 37" version="1.1" xmlns="http://www.w3.org/2000/svg" xmlns:xlink="http://www.w3.org/1999/xlink">
    <!-- Generator: Sketch 41.2 (35397) - http://www.bohemiancoding.com/sketch -->
    <title>Group 18</title>
    <desc>Created with Sketch.</desc>
    <defs>
        <polygon id="path-1" points="20 0 10 6 0 0 0 12 10 18 20 12"></polygon>
        <mask id="mask-2" maskContentUnits="userSpaceOnUse" maskUnits="objectBoundingBox" x="-2" y="-2" width="24" height="22">
            <rect x="-2" y="-2" width="24" height="22" fill="white"></rect>
            <use xlink:href="#path-1" fill="black"></use>
        </mask>
        <path d="M50.2386993,29.0377488 L52.1387064,27.1377417 C52.3339685,26.9424796 52.650551,26.9424796 52.8458132,27.1377417 C53.0410753,27.3330039 53.0410753,27.6495863 52.8458132,27.8448485 L50.9458019,29.7448597 L52.8347972,31.6338772 C53.0321914,31.8312737 53.0353383,32.1481757 52.8386761,32.3448479 L52.3457946,32.8377545 C52.1505427,33.0330163 51.8309335,33.0299791 51.6348461,32.8338894 L49.7458202,30.9448414 L47.8458132,32.8448485 C47.650551,33.0401106 47.3339685,33.0401106 47.1387064,32.8448485 C46.9434442,32.6495863 46.9434442,32.3330039 47.1387064,32.1377417 L49.0387176,30.2377305 L47.1497223,28.348713 C46.9523282,28.1513165 46.9491813,27.8344145 47.1458434,27.6377423 L47.638725,27.1448357 C47.8339768,26.9495739 48.153586,26.9526111 48.3496735,27.1487008 L50.2386993,29.0377488 Z M22.2464395,29.0464537 L24.1464466,27.1464466 C24.3417088,26.9511845 24.6582912,26.9511845 24.8535534,27.1464466 C25.0488155,27.3417088 25.0488155,27.6582912 24.8535534,27.8535534 L22.9535422,29.7535646 L24.8425375,31.6425821 C25.0399316,31.8399786 25.0430785,32.1568806 24.8464164,32.3535528 L24.3535348,32.8464594 C24.1582829,33.0417212 23.8386737,33.038684 23.6425863,32.8425943 L21.7535605,30.9535463 L19.8535534,32.8535534 C19.6582912,33.0488155 19.3417088,33.0488155 19.1464466,32.8535534 C18.9511845,32.6582912 18.9511845,32.3417088 19.1464466,32.1464466 L21.0464578,30.2464354 L19.1574625,28.3574179 C18.9600684,28.1600214 18.9569215,27.8431194 19.1535836,27.6464472 L19.6464652,27.1535406 C19.8417171,26.9582788 20.1613263,26.961316 20.3574137,27.1574057 L22.2464395,29.0464537 Z M29,27.1704193 C29.3130203,27.0600503 29.6501085,27 30.0016655,27 L31.9983345,27 C33.6561086,27 35,28.3465171 35,30 C35,31.6568542 33.6609799,33 31.9983345,33 L30.0016655,33 C28.3438914,33 27,31.6534829 27,30 L27,25.4976988 C27,25.2228273 27.214035,25 27.5046844,25 L28.4953156,25 C28.7740451,25 29,25.2148438 29,25.4976988 L29,27.1704193 Z M2,31 L2,32.4953156 C2,32.7740451 1.78596497,33 1.49531555,33 L0.504684448,33 C0.225954924,33 0,32.7721195 0,32.5089948 L0,30 C0,28.3431458 1.34967041,27 3.00925446,27 L6.49657726,27 C6.77460996,27 7,27.2319336 7,27.5 C7,27.7761424 6.78515625,28 6.50230122,28 L4.0048815,28 C2.89761602,28 2,28.8947051 2,30 L5.50952148,30 C5.78040529,30 6,30.2319336 6,30.5 C6,30.7761424 5.78494263,31 5.50952148,31 L2,31 Z M9,30 C9,28.3431458 10.3390201,27 12.0016655,27 L13.9983345,27 C15.6561086,27 17,28.3465171 17,30 C17,31.6568542 15.6609799,33 13.9983345,33 L12.0016655,33 C10.3438914,33 9,31.6534829 9,30 Z M11,30 C11,28.8954305 11.8877296,28 13,28 C14.1045695,28 15,28.8877296 15,30 C15,31.1045695 14.1122704,32 13,32 C11.8954305,32 11,31.1122704 11,30 Z M29,30 C29,28.8954305 29.8877296,28 31,28 C32.1045695,28 33,28.8877296 33,30 C33,31.1045695 32.1122704,32 31,32 C29.8954305,32 29,31.1122704 29,30 Z M37,30 C37,28.3431458 38.3390201,27 40.0016655,27 L41.9983345,27 C43.6561086,27 45,28.3465171 45,30 C45,31.6568542 43.6609799,33 41.9983345,33 L40.0016655,33 C38.3438914,33 37,31.6534829 37,30 Z M39,30 C39,28.8954305 39.8877296,28 41,28 C42.1045695,28 43,28.8877296 43,30 C43,31.1045695 42.1122704,32 41,32 C39.8954305,32 39,31.1122704 39,30 Z" id="path-3"></path>
        <mask id="mask-4" maskContentUnits="userSpaceOnUse" maskUnits="objectBoundingBox" x="-2" y="-2" width="56.9922598" height="12">
            <rect x="-2" y="23" width="56.9922598" height="12" fill="white"></rect>
            <use xlink:href="#path-3" fill="black"></use>
        </mask>
    </defs>
    <g id="Misc" stroke="none" stroke-width="1" fill="none" fill-rule="evenodd">
        <g id="Group-18" transform="translate(2.000000, 2.000000)">
            <g id="Group" transform="translate(16.000000, 0.000000)">
                <g id="Rectangle-15">
                    <use fill="#FF7200" fill-rule="evenodd" xlink:href="#path-1"></use>
                    <use stroke-opacity="0.4" stroke="#FFFFFF" mask="url(#mask-2)" stroke-width="4" stroke-linecap="round" stroke-linejoin="round" xlink:href="#path-1"></use>
                </g>
                <polygon id="Rectangle-15" fill="#FF5A00" points="10 6 20 12 10 18"></polygon>
                <polygon id="Rectangle-15" fill="#EE4807" points="10 6 0 12 10 18"></polygon>
                <polygon id="Rectangle-15" fill="#FF5A00" points="0 0 10 6 0 12"></polygon>
            </g>
            <g id="Combined-Shape">
                <use fill="#341F3E" fill-rule="evenodd" xlink:href="#path-3"></use>
                <use stroke-opacity="0.4" stroke="#FFFFFF" mask="url(#mask-4)" stroke-width="4" stroke-linecap="round" stroke-linejoin="round" xlink:href="#path-3"></use>
            </g>
        </g>
    </g>
</svg>