<?xml version="1.0" encoding="UTF-8"?>
<svg width="36px" height="36px" viewBox="0 0 36 36" version="1.1" xmlns="http://www.w3.org/2000/svg" xmlns:xlink="http://www.w3.org/1999/xlink">
    <!-- Generator: Sketch 41.2 (35397) - http://www.bohemiancoding.com/sketch -->
    <title>icon/search</title>
    <desc>Created with Sketch.</desc>
    <defs></defs>
    <g id="Symbols" stroke="none" stroke-width="1" fill="none" fill-rule="evenodd">
        <g id="icon/search">
            <g id="icon/frame" opacity="0">
                <rect id="frame" fill="#FFFFFF" x="0" y="0" width="36" height="36"></rect>
                <rect id="bounding-box" fill="#000000" x="8" y="8" width="20" height="20"></rect>
            </g>
            <g id="magnifying" transform="translate(8.000000, 8.000000)">
                <path d="M14,14 L18,18.0000153" id="Line" stroke="#000000" stroke-width="3" stroke-linecap="square"></path>
                <path d="M8,16 C12.418278,16 16,12.418278 16,8 C16,3.581722 12.418278,0 8,0 C3.581722,0 0,3.581722 0,8 C0,12.418278 3.581722,16 8,16 Z M8,14 C11.3137085,14 14,11.3137085 14,8 C14,4.6862915 11.3137085,2 8,2 C4.6862915,2 2,4.6862915 2,8 C2,11.3137085 4.6862915,14 8,14 Z" id="Combined-Shape" fill="#000000"></path>
            </g>
        </g>
    </g>
</svg>