<?xml version="1.0" encoding="UTF-8"?>
<svg width="45px" height="36px" viewBox="0 0 45 36" version="1.1" xmlns="http://www.w3.org/2000/svg" xmlns:xlink="http://www.w3.org/1999/xlink">
    <!-- Generator: Sketch 41.2 (35397) - http://www.bohemiancoding.com/sketch -->
    <title>Group 2</title>
    <desc>Created with Sketch.</desc>
    <defs>
        <polygon id="path-1" points="20 0 10 6 0 0 0 12 10 18 20 12"></polygon>
        <mask id="mask-2" maskContentUnits="userSpaceOnUse" maskUnits="objectBoundingBox" x="-2" y="-2" width="24" height="22">
            <rect x="-2" y="-2" width="24" height="22" fill="white"></rect>
            <use xlink:href="#path-1" fill="black"></use>
        </mask>
        <path d="M16.2928932,29 L14.1464466,26.8535534 C13.9511845,26.6582912 13.9511845,26.3417088 14.1464466,26.1464466 C14.3417088,25.9511845 14.6582912,25.9511845 14.8535534,26.1464466 L17,28.2928932 L19.1464466,26.1464466 C19.3417088,25.9511845 19.6582912,25.9511845 19.8535534,26.1464466 C20.0488155,26.3417088 20.0488155,26.6582912 19.8535534,26.8535534 L17.7071068,29 L19.8535534,31.1464466 C20.0488155,31.3417088 20.0488155,31.6582912 19.8535534,31.8535534 C19.6582912,32.0488155 19.3417088,32.0488155 19.1464466,31.8535534 L17,29.7071068 L14.8535534,31.8535534 C14.6582912,32.0488155 14.3417088,32.0488155 14.1464466,31.8535534 C13.9511845,31.6582912 13.9511845,31.3417088 14.1464466,31.1464466 L16.2928932,29 Z M37.2928932,29 L35.1464466,26.8535534 C34.9511845,26.6582912 34.9511845,26.3417088 35.1464466,26.1464466 C35.3417088,25.9511845 35.6582912,25.9511845 35.8535534,26.1464466 L38,28.2928932 L40.1464466,26.1464466 C40.3417088,25.9511845 40.6582912,25.9511845 40.8535534,26.1464466 C41.0488155,26.3417088 41.0488155,26.6582912 40.8535534,26.8535534 L38.7071068,29 L40.8535534,31.1464466 C41.0488155,31.3417088 41.0488155,31.6582912 40.8535534,31.8535534 C40.6582912,32.0488155 40.3417088,32.0488155 40.1464466,31.8535534 L38,29.7071068 L35.8535534,31.8535534 C35.6582912,32.0488155 35.3417088,32.0488155 35.1464466,31.8535534 C34.9511845,31.6582912 34.9511845,31.3417088 35.1464466,31.1464466 L37.2928932,29 Z M22,26.7651007 L22,25.4904785 C22,25.2150574 21.7761424,25 21.5,25 C21.2319336,25 21,25.2195947 21,25.4904785 L21,29 L21,29.0351555 C21,30.6684055 22.3274061,32 23.9648445,32 L24.0351555,32 C25.6684055,32 27,30.6725939 27,29.0351555 L27,28.9648445 C27,27.3315945 25.6725939,26 24.0351555,26 L24,26 C23.2325597,26 22.5312465,26.289343 22,26.7651007 Z M1,30 L1,31.4953156 C1,31.7740451 0.768066406,32 0.5,32 C0.223857625,32 0,31.7842474 0,31.504611 L0,29 C0,27.3431458 1.39895835,26 3,26 L5.50461102,26 C5.7782068,26 6,26.2319336 6,26.5 C6,26.7761424 5.7842474,27 5.50461102,27 L3,27 C1.93260108,27 1.00066906,27.8932087 1,29 L4.50952148,29 C4.78040529,29 5,29.2319336 5,29.5 C5,29.7761424 4.78494263,30 4.50952148,30 L1,30 Z M28,29 C28,27.3431458 29.3465171,26 31,26 C32.6568542,26 34,27.3465171 34,29 C34,30.6568542 32.6534829,32 31,32 C29.3431458,32 28,30.6534829 28,29 Z M29,29 C29,27.8954305 29.8877296,27 31,27 C32.1045695,27 33,27.8877296 33,29 C33,30.1045695 32.1122704,31 31,31 C29.8954305,31 29,30.1122704 29,29 Z M22,29 C22,27.8954305 22.8877296,27 24,27 C25.1045695,27 26,27.8877296 26,29 C26,30.1045695 25.1122704,31 24,31 C22.8954305,31 22,30.1122704 22,29 Z M7,29 C7,27.3431458 8.34651712,26 10,26 C11.6568542,26 13,27.3465171 13,29 C13,30.6568542 11.6534829,32 10,32 C8.34314575,32 7,30.6534829 7,29 Z M8,29 C8,27.8954305 8.88772964,27 10,27 C11.1045695,27 12,27.8877296 12,29 C12,30.1045695 11.1122704,31 10,31 C8.8954305,31 8,30.1122704 8,29 Z" id="path-3"></path>
        <mask id="mask-4" maskContentUnits="userSpaceOnUse" maskUnits="objectBoundingBox" x="-2" y="-2" width="45" height="11">
            <rect x="-2" y="23" width="45" height="11" fill="white"></rect>
            <use xlink:href="#path-3" fill="black"></use>
        </mask>
    </defs>
    <g id="Screens-v2" stroke="none" stroke-width="1" fill="none" fill-rule="evenodd">
        <g id="Splash-Copy" transform="translate(-153.000000, -533.000000)">
            <g id="Group-2" transform="translate(155.000000, 535.000000)">
                <g id="Group" transform="translate(11.000000, 0.000000)">
                    <g id="Rectangle-15">
                        <use fill="#FF7200" fill-rule="evenodd" xlink:href="#path-1"></use>
                        <use stroke-opacity="0.4" stroke="#FFFFFF" mask="url(#mask-2)" stroke-width="4" stroke-linecap="round" stroke-linejoin="round" xlink:href="#path-1"></use>
                    </g>
                    <polygon id="Rectangle-15" fill="#FF5A00" points="10 6 20 12 10 18"></polygon>
                    <polygon id="Rectangle-15" fill="#EE4807" points="10 6 0 12 10 18"></polygon>
                    <polygon id="Rectangle-15" fill="#FF5A00" points="0 0 10 6 0 12"></polygon>
                </g>
                <g id="Combined-Shape">
                    <use fill="#341F3E" fill-rule="evenodd" xlink:href="#path-3"></use>
                    <use stroke-opacity="0.4" stroke="#FFFFFF" mask="url(#mask-4)" stroke-width="4" stroke-linejoin="bevel" xlink:href="#path-3"></use>
                </g>
            </g>
        </g>
    </g>
</svg>