<?xml version="1.0" encoding="UTF-8"?>
<svg width="45px" height="36px" viewBox="0 0 45 36" version="1.1" xmlns="http://www.w3.org/2000/svg" xmlns:xlink="http://www.w3.org/1999/xlink">
    <!-- Generator: Sketch 41.2 (35397) - http://www.bohemiancoding.com/sketch -->
    <title>Group 8</title>
    <desc>Created with Sketch.</desc>
    <defs>
        <polygon id="path-1" points="24 0 12 6 0 0 0 12 12 18 24 12"></polygon>
        <mask id="mask-2" maskContentUnits="userSpaceOnUse" maskUnits="objectBoundingBox" x="-2" y="-2" width="28" height="22">
            <rect x="-2" y="-2" width="28" height="22" fill="white"></rect>
            <use xlink:href="#path-1" fill="black"></use>
        </mask>
        <polygon id="path-3" points="24 0 12 6 0 0 0 12 12 18 24 12"></polygon>
        <radialGradient cx="50%" cy="50%" fx="50%" fy="50%" r="50%" id="radialGradient-5">
            <stop stop-color="#B83A03" offset="0%"></stop>
            <stop stop-color="#FFFFFF" offset="100%"></stop>
        </radialGradient>
        <radialGradient cx="50%" cy="50%" fx="50%" fy="50%" r="50%" id="radialGradient-6">
            <stop stop-color="#FFFFFF" offset="0%"></stop>
            <stop stop-color="#000000" offset="100%"></stop>
        </radialGradient>
        <path d="M16.2928932,29 L14.1464466,26.8535534 C13.9511845,26.6582912 13.9511845,26.3417088 14.1464466,26.1464466 C14.3417088,25.9511845 14.6582912,25.9511845 14.8535534,26.1464466 L17,28.2928932 L19.1464466,26.1464466 C19.3417088,25.9511845 19.6582912,25.9511845 19.8535534,26.1464466 C20.0488155,26.3417088 20.0488155,26.6582912 19.8535534,26.8535534 L17.7071068,29 L19.8535534,31.1464466 C20.0488155,31.3417088 20.0488155,31.6582912 19.8535534,31.8535534 C19.6582912,32.0488155 19.3417088,32.0488155 19.1464466,31.8535534 L17,29.7071068 L14.8535534,31.8535534 C14.6582912,32.0488155 14.3417088,32.0488155 14.1464466,31.8535534 C13.9511845,31.6582912 13.9511845,31.3417088 14.1464466,31.1464466 L16.2928932,29 Z M37.2928932,29 L35.1464466,26.8535534 C34.9511845,26.6582912 34.9511845,26.3417088 35.1464466,26.1464466 C35.3417088,25.9511845 35.6582912,25.9511845 35.8535534,26.1464466 L38,28.2928932 L40.1464466,26.1464466 C40.3417088,25.9511845 40.6582912,25.9511845 40.8535534,26.1464466 C41.0488155,26.3417088 41.0488155,26.6582912 40.8535534,26.8535534 L38.7071068,29 L40.8535534,31.1464466 C41.0488155,31.3417088 41.0488155,31.6582912 40.8535534,31.8535534 C40.6582912,32.0488155 40.3417088,32.0488155 40.1464466,31.8535534 L38,29.7071068 L35.8535534,31.8535534 C35.6582912,32.0488155 35.3417088,32.0488155 35.1464466,31.8535534 C34.9511845,31.6582912 34.9511845,31.3417088 35.1464466,31.1464466 L37.2928932,29 Z M22,26.7460008 L22,25.4904785 C22,25.2150574 21.7761424,25 21.5,25 C21.2120743,25 21,25.2195947 21,25.4904785 L21,28.9824222 L21,29.0351555 C21,30.6684055 22.3274061,32 23.9648445,32 L24.0351555,32 C25.6684055,32 27,30.6725939 27,29.0351555 L27,28.9648445 C27,27.3315945 25.6725939,26 24.0351555,26 L23.9648445,26 C23.2122566,26 22.5237189,26.2818467 22,26.7460008 Z M1,30 L1,31.4953156 C1,31.7740451 0.78792572,32 0.5,32 C0.223857625,32 0,31.7842474 0,31.504611 L0,29 C0,27.3431458 1.39895835,26 3,26 L5.50461102,26 C5.7782068,26 6,26.2120743 6,26.5 C6,26.7761424 5.7842474,27 5.50461102,27 L3,27 C1.93260108,27 1.00066906,27.8932087 1,29 L4.50952148,29 C4.78040529,29 5,29.2120743 5,29.5 C5,29.7761424 4.78494263,30 4.50952148,30 L1,30 Z M28,28.9648445 C28,27.3274061 29.3315945,26 30.9648445,26 L31.0351555,26 C32.6725939,26 34,27.3315945 34,28.9648445 L34,29.0351555 C34,30.6725939 32.6684055,32 31.0351555,32 L30.9648445,32 C29.3274061,32 28,30.6684055 28,29.0351555 L28,28.9648445 Z M29,29 C29,27.8954305 29.8877296,27 31,27 C32.1045695,27 33,27.8877296 33,29 C33,30.1045695 32.1122704,31 31,31 C29.8954305,31 29,30.1122704 29,29 Z M22,29 C22,27.8954305 22.8877296,27 24,27 C25.1045695,27 26,27.8877296 26,29 C26,30.1045695 25.1122704,31 24,31 C22.8954305,31 22,30.1122704 22,29 Z M7,28.9648445 C7,27.3274061 8.33159447,26 9.96484447,26 L10.0351555,26 C11.6725939,26 13,27.3315945 13,28.9648445 L13,29.0351555 C13,30.6725939 11.6684055,32 10.0351555,32 L9.96484447,32 C8.32740608,32 7,30.6684055 7,29.0351555 L7,28.9648445 Z M8,29 C8,27.8954305 8.88772964,27 10,27 C11.1045695,27 12,27.8877296 12,29 C12,30.1045695 11.1122704,31 10,31 C8.8954305,31 8,30.1122704 8,29 Z" id="path-7"></path>
        <mask id="mask-8" maskContentUnits="userSpaceOnUse" maskUnits="objectBoundingBox" x="-2" y="-2" width="45" height="11">
            <rect x="-2" y="23" width="45" height="11" fill="white"></rect>
            <use xlink:href="#path-7" fill="black"></use>
        </mask>
    </defs>
    <g id="Logo-exploration" stroke="none" stroke-width="1" fill="none" fill-rule="evenodd">
        <g id="Artboard-3" transform="translate(-497.000000, -551.000000)">
            <g id="Group-8" transform="translate(499.000000, 553.000000)">
                <g id="Group-7" transform="translate(9.000000, 0.000000)">
                    <use id="Rectangle-15" stroke="#FFFFFF" mask="url(#mask-2)" stroke-width="4" stroke-linecap="round" stroke-linejoin="round" opacity="0.4" xlink:href="#path-1"></use>
                    <g id="Group-5">
                        <mask id="mask-4" fill="white">
                            <use xlink:href="#path-3"></use>
                        </mask>
                        <use id="Rectangle-15" fill="#FF6700" xlink:href="#path-3"></use>
                        <polygon id="Rectangle-15" fill="#FB6310" mask="url(#mask-4)" points="12 6 0 0 0 12 12 18"></polygon>
                        <polygon id="Rectangle-15" fill="#FF7200" mask="url(#mask-4)" points="24 0 12 6 12 18 24 12"></polygon>
                        <polygon id="Rectangle-15" fill="#FB6310" mask="url(#mask-4)" points="12 6 24 12 12 18"></polygon>
                        <polygon id="Rectangle-15" fill="#FF7200" mask="url(#mask-4)" points="12 6 0 12 12 18"></polygon>
                        <circle id="Oval-5" fill-opacity="0.2" fill="url(#radialGradient-5)" style="mix-blend-mode: multiply;" mask="url(#mask-4)" cx="24" cy="0" r="4.75"></circle>
                        <circle id="Oval-5" fill-opacity="0.2" fill="url(#radialGradient-5)" style="mix-blend-mode: multiply;" mask="url(#mask-4)" cx="24" cy="0" r="6"></circle>
                        <circle id="Oval-5" fill-opacity="0.4" fill="url(#radialGradient-5)" style="mix-blend-mode: multiply;" mask="url(#mask-4)" cx="0.25" cy="0.25" r="6"></circle>
                        <circle id="Oval-5" fill-opacity="0.2" fill="url(#radialGradient-6)" style="mix-blend-mode: lighten;" mask="url(#mask-4)" cx="12" cy="18" r="6"></circle>
                    </g>
                </g>
                <g id="Combined-Shape">
                    <use fill="#000000" fill-rule="evenodd" xlink:href="#path-7"></use>
                    <use stroke-opacity="0.4" stroke="#FFFFFF" mask="url(#mask-8)" stroke-width="4" stroke-linejoin="bevel" xlink:href="#path-7"></use>
                </g>
            </g>
        </g>
    </g>
</svg>