<?xml version="1.0" encoding="UTF-8"?>
<svg width="36px" height="36px" viewBox="0 0 36 36" version="1.1" xmlns="http://www.w3.org/2000/svg" xmlns:xlink="http://www.w3.org/1999/xlink">
    <!-- Generator: Sketch 41.2 (35397) - http://www.bohemiancoding.com/sketch -->
    <title>icon/geolocation</title>
    <desc>Created with Sketch.</desc>
    <defs></defs>
    <g id="Symbols" stroke="none" stroke-width="1" fill="none" fill-rule="evenodd">
        <g id="icon/geolocation">
            <g id="icon/frame" opacity="0">
                <g id="Group-2">
                    <rect id="frame" fill="#FFFFFF" x="0" y="0" width="36" height="36"></rect>
                    <rect id="bounding-box" fill="#000000" x="8" y="8" width="20" height="20"></rect>
                </g>
            </g>
            <path d="M17.4389934,28.1675164 C17.7488288,28.6272844 18.2491337,28.6337053 18.5610066,28.1675164 C18.5610066,28.1675164 25,18.8659932 25,15 C25,11.1340068 21.8659932,8 18,8 C14.1340068,8 11,11.1340068 11,15 C11,18.8659932 17.4389934,28.1675164 17.4389934,28.1675164 Z M18,18 C19.6568542,18 21,16.6568542 21,15 C21,13.3431458 19.6568542,12 18,12 C16.3431458,12 15,13.3431458 15,15 C15,16.6568542 16.3431458,18 18,18 Z" id="Combined-Shape" fill="#000000"></path>
        </g>
    </g>
</svg>