<?xml version="1.0" encoding="UTF-8"?>
<svg width="36px" height="36px" viewBox="0 0 36 36" version="1.1" xmlns="http://www.w3.org/2000/svg" xmlns:xlink="http://www.w3.org/1999/xlink">
    <!-- Generator: Sketch 41.2 (35397) - http://www.bohemiancoding.com/sketch -->
    <title>icon/layers</title>
    <desc>Created with Sketch.</desc>
    <defs></defs>
    <g id="Symbols" stroke="none" stroke-width="1" fill="none" fill-rule="evenodd">
        <g id="icon/layers">
            <g id="icon/frame" opacity="0">
                <g id="Group-2">
                    <rect id="frame" fill="#FFFFFF" x="0" y="0" width="36" height="36"></rect>
                    <rect id="bounding-box" fill="#000000" x="8" y="8" width="20" height="20"></rect>
                </g>
            </g>
            <path d="M8,14.077033 L18,18.077033 L28,14.077033 L28,11.922967 L18,7.92296704 L8,11.922967 L8,14.077033 Z M18,10.077033 L25.3074176,13 L18,15.922967 L10.6925824,13 L18,10.077033 Z" id="Combined-Shape" fill="#000000"></path>
            <path d="M8,19.077033 L18,23.077033 L28,19.077033 L28,16.922967 L18,20.922967 L8,16.922967 L8,19.077033 Z" id="Combined-Shape" fill="#000000"></path>
            <path d="M28,24.077033 L18,28.077033 L8,24.077033 L8,21.922967 L18,25.922967 L28,21.922967 L28,24.077033 Z" id="Combined-Shape" fill="#000000"></path>
        </g>
    </g>
</svg>