<?xml version="1.0" encoding="UTF-8"?>
<svg width="36px" height="36px" viewBox="0 0 36 36" version="1.1" xmlns="http://www.w3.org/2000/svg" xmlns:xlink="http://www.w3.org/1999/xlink">
    <!-- Generator: Sketch 41.2 (35397) - http://www.bohemiancoding.com/sketch -->
    <title>icon/preferences</title>
    <desc>Created with Sketch.</desc>
    <defs></defs>
    <g id="Symbols" stroke="none" stroke-width="1" fill="none" fill-rule="evenodd">
        <g id="icon/preferences">
            <g id="icon/frame" opacity="0">
                <g id="Group-2">
                    <rect id="frame" fill="#FFFFFF" x="0" y="0" width="36" height="36"></rect>
                    <rect id="bounding-box" fill="#000000" x="8" y="8" width="20" height="20"></rect>
                </g>
            </g>
            <path d="M11.7405161,25.7991017 L15.3586577,24.2226126 L16.7382811,27.9211645 C17.1515326,27.9731915 17.5726356,28 18,28 C18.3677983,28 18.7309589,27.9801438 19.0884683,27.941445 L20.5323405,24.2677626 L24.1225368,25.9072114 C24.7438273,25.4254471 25.3068089,24.8720779 25.7991017,24.2594839 L24.2226126,20.6413423 L27.9211645,19.2617189 C27.9731915,18.8484674 28,18.4273644 28,18 C28,17.6322017 27.9801438,17.2690411 27.941445,16.9115317 L24.2677626,15.4676595 L25.9072114,11.8774632 C25.4254471,11.2561727 24.8720779,10.6931911 24.2594839,10.2008983 L20.6413423,11.7773874 L19.2617189,8.07883554 C18.8484674,8.0268085 18.4273644,8 18,8 C17.6322017,8 17.2690411,8.01985615 16.9115317,8.05855497 L15.4676595,11.7322374 L11.8774632,10.0927886 C11.2561727,10.5745529 10.6931911,11.1279221 10.2008983,11.7405161 L11.7773874,15.3586577 L8.07883554,16.7382811 C8.0268085,17.1515326 8,17.5726356 8,18 C8,18.3677983 8.01985615,18.7309589 8.05855497,19.0884683 L11.7322374,20.5323405 L10.0927886,24.1225368 C10.5745529,24.7438273 11.1279221,25.3068089 11.7405161,25.7991017 Z M18,22 C20.209139,22 22,20.209139 22,18 C22,15.790861 20.209139,14 18,14 C15.790861,14 14,15.790861 14,18 C14,20.209139 15.790861,22 18,22 Z" id="Combined-Shape" fill="#000000"></path>
        </g>
    </g>
</svg>