<?xml version="1.0" encoding="UTF-8"?>
<svg width="21px" height="21px" viewBox="0 0 21 21" version="1.1" xmlns="http://www.w3.org/2000/svg" xmlns:xlink="http://www.w3.org/1999/xlink">
    <!-- Generator: Sketch 41.2 (35397) - http://www.bohemiancoding.com/sketch -->
    <title>icon/search</title>
    <desc>Created with Sketch.</desc>
    <defs></defs>
    <g id="Screens" stroke="none" stroke-width="1" fill="none" fill-rule="evenodd">
        <g id="Artboard-2" transform="translate(-679.000000, -20.000000)">
            <g id="icon/search" transform="translate(672.000000, 12.000000)">
                <g id="icon/frame" opacity="0">
                    <g id="Group-2">
                        <rect id="frame" fill="#FFFFFF" x="0" y="0" width="36" height="36"></rect>
                        <rect id="bounding-box" fill="#000000" x="8" y="8" width="20" height="20"></rect>
                    </g>
                </g>
                <g id="magnifying" transform="translate(7.836826, 8.000000)">
                    <path d="M13.7144454,14 L17.6328584,18.0000153" id="Line" stroke="#C3C3C3" stroke-width="3" stroke-linecap="square"></path>
                    <path d="M7.83682595,16 C12.1649854,16 15.6736519,12.418278 15.6736519,8 C15.6736519,3.581722 12.1649854,0 7.83682595,0 C3.50866649,0 0,3.581722 0,8 C0,12.418278 3.50866649,16 7.83682595,16 Z M7.83682595,14 C11.0829455,14 13.7144454,11.3137085 13.7144454,8 C13.7144454,4.6862915 11.0829455,2 7.83682595,2 C4.59070635,2 1.95920649,4.6862915 1.95920649,8 C1.95920649,11.3137085 4.59070635,14 7.83682595,14 Z" id="Combined-Shape" fill="#C3C3C3"></path>
                </g>
            </g>
        </g>
    </g>
</svg>