<?xml version="1.0" encoding="UTF-8"?>
<svg width="36px" height="36px" viewBox="0 0 36 36" version="1.1" xmlns="http://www.w3.org/2000/svg" xmlns:xlink="http://www.w3.org/1999/xlink">
    <!-- Generator: Sketch 41.2 (35397) - http://www.bohemiancoding.com/sketch -->
    <title>icon/star</title>
    <desc>Created with Sketch.</desc>
    <defs></defs>
    <g id="Symbols" stroke="none" stroke-width="1" fill="none" fill-rule="evenodd">
        <g id="icon/star">
            <g id="icon/frame" opacity="0">
                <g id="Group-2">
                    <rect id="frame" fill="#FFFFFF" x="0" y="0" width="36" height="36"></rect>
                    <rect id="bounding-box" fill="#000000" x="8" y="8" width="20" height="20"></rect>
                </g>
            </g>
            <path d="M18.8593498,22.8439955 C18.384744,22.5624957 17.6133921,22.5636012 17.1406502,22.8439955 L12.6790099,25.4902994 C12.2044041,25.7717993 11.9185174,25.5618629 12.0393996,25.0261116 L13.1802604,19.9698004 C13.3016192,19.4319367 13.0622057,18.6994939 12.6491531,18.3370358 L8.75084685,14.9162304 C8.33616559,14.5523431 8.44770513,14.2158769 8.99515625,14.1651586 L14.1618874,13.6864904 C14.711497,13.6355722 15.3348833,13.1817921 15.5523445,12.6773864 L17.6046991,7.91690844 C17.8230178,7.41051389 18.1778397,7.41250267 18.3953009,7.91690844 L20.4476555,12.6773864 C20.6659742,13.1837809 21.2906615,13.6357721 21.8381126,13.6864904 L27.0048438,14.1651586 C27.5544534,14.2160769 27.6622058,14.5537722 27.2491531,14.9162304 L23.3508469,18.3370358 C22.9361657,18.700923 22.6988574,19.434049 22.8197396,19.9698004 L23.9606004,25.0261116 C24.0819592,25.5639753 23.7937319,25.7706937 23.3209901,25.4902994 L18.8593498,22.8439955 Z" id="Star-2" fill="#000000"></path>
        </g>
    </g>
</svg>